	                                     Whitechapel DVDRip XviD-unknow


Codec ID : XVID
  Codec ID/Hint : XviD
  Duration : 2h 16mn
  Bit rate : 943 Kbps
  Width : 640 pixels
  Height : 352 pixels
  Display aspect ratio : 16/9
  Frame rate : 25.000 fps
  Resolution : 24 bits
  Colorimetry : 4:2:0
  Scan type : Progressive
  Bits/(Pixel*Frame) : 0.167
  Stream size : 919 MiB (88%)
  Writing library : XviD 1.2.0SMP (UTC 2006-01-08)

 Audio
  Format : MPEG Audio
  Format version : Version 1
  Format profile : Layer 3
  Codec ID : 55
  Codec ID/Hint : MP3
  Duration : 2h 16mn
  Bit rate mode : Variable
  Bit rate : 122 Kbps
  Minimum bit rate : 128 Kbps
  Channel(s) : 2 channels
  Sampling rate : 48.0 KHz
  Resolution : 16 bits
  Stream size : 119 MiB (11%)
  Alignment : Aligned on interleaves
  Interleave, duration : 24 ms (0.60 video frame)
  Writing library : LAME3.97
  Encoding settings : ABR

Link:  http://www.imdb.com/title/tt1186356/

Plot:  Set in 2008 and against the hugely atmospheric background of Whitechapel, London, a modern police force are fighting an old adversary. A series of bloody, tragic and impossible crimes would suggest someone is carrying out copycat Jack the Ripper murders. The murders are investigated by our three unlikely heroes: Chandler (Penry-Jones), a fast-tracked, media savvy DI on his first big murder case; Miles (Phil Davis), nearing retirement, a front-line, hard-bitten DS, and Buchan, the eccentrically brilliant Jack the Ripper tour guide